<svg width="56" height="49" viewBox="0 0 56 49" fill="none" xmlns="http://www.w3.org/2000/svg">
<path d="M51.156 0H22.0464C19.5106 0 17.4483 2.06222 17.4483 4.59811V20.474H4.53367C2.03322 20.474 0 22.5072 0 25.0077V33.4725C0 41.6827 6.67966 48.3623 14.8899 48.3623H42.0887C49.6254 48.3623 55.7541 42.2304 55.7541 34.6969V4.60134C55.7541 2.06545 53.6919 0.00322537 51.156 0.00322537V0ZM49.1937 34.6969C49.1937 38.6183 46.0133 41.7987 42.0919 41.7987H41.818C37.6066 41.7987 34.191 38.3831 34.191 34.1717V25.0077C34.191 22.504 32.161 20.474 29.6573 20.474H24.012V6.56044H49.1904V34.6937L49.1937 34.6969Z" fill="#FB7C37"/>
</svg>
