<svg width="202" height="95" viewBox="0 0 202 95" fill="none" xmlns="http://www.w3.org/2000/svg">
<path d="M0 71.3504V71.2087H6.873C6.95678 72.5104 7.49489 75.3106 10.8911 75.3106H11.0039C14.3421 75.3106 15.3023 73.0486 15.3023 70.5288V59.4121H22.0626V70.6996C22.0626 74.6597 20.4772 80.798 11.484 80.798H10.4658C1.69811 80.798 0 75.056 0 71.3504Z" fill="#FB7C37"/>
<path d="M41.1543 76.8089H30.0376L28.4265 80.4564H21.6663L31.2266 59.4121H40.136L50.0089 80.4564H42.7976L41.1575 76.8089H41.1543ZM35.554 64.3067L32.103 72.1689H39.0888L35.554 64.3067Z" fill="#FB7C37"/>
<path d="M57.217 73.9547V80.4603H50.4568V59.416H65.279C72.5483 59.416 74.5848 62.3289 74.5848 66.4598V66.7981C74.5848 70.9 72.4646 73.9547 65.279 73.9547H57.217ZM57.217 68.9184H64.7119C66.8063 68.9184 67.57 68.0129 67.57 66.7111V66.6274C67.57 65.3836 66.8063 64.4781 64.7119 64.4781H57.217V68.9184Z" fill="#FB7C37"/>
<path d="M82.3922 73.9547V80.4603H75.632V59.416H90.4542C97.7235 59.416 99.76 62.3289 99.76 66.4598V66.7981C99.76 70.9 97.6397 73.9547 90.4542 73.9547H82.3922ZM82.3922 68.9184H89.8871C91.9815 68.9184 92.7452 68.0129 92.7452 66.7111V66.6274C92.7452 65.3836 91.9815 64.4781 89.8871 64.4781H82.3922V68.9184Z" fill="#FB7C37"/>
<path d="M113.248 80.7984C102.979 80.7984 100.575 74.5183 100.575 70.3037V69.4562C100.575 65.1836 102.95 59.0742 113.248 59.0742H114.55C124.507 59.0742 126.968 63.798 126.968 67.5873V67.7291H120.012C119.928 67.191 119.306 64.3619 113.902 64.3619C108.895 64.3619 107.622 67.22 107.622 69.6528V70.0201C107.622 72.2821 108.953 75.4496 113.931 75.4496C119.335 75.4496 119.928 72.5914 120.012 72.0276H126.968V72.1983C126.968 75.7621 124.565 80.7984 114.55 80.7984H113.248Z" fill="#FB7C37"/>
<path d="M145.209 76.8089H134.093L132.482 80.4564H125.721L135.282 59.4121H144.191L154.064 80.4564H146.853L145.213 76.8089H145.209ZM139.609 64.3067L136.158 72.1689H143.144L139.609 64.3067Z" fill="#FB7C37"/>
<path d="M179.149 75.5658V78.3111C179.149 79.6419 179.291 80.0092 179.487 80.3186V80.4603H172.502C172.418 80.3186 172.331 79.9512 172.331 79.0748V77.3219C172.331 74.6056 171.342 73.6164 168.371 73.6164H161.272V80.4603H154.512V59.416H170.127C177.989 59.416 178.982 62.5835 178.982 65.1V65.3546C178.982 68.1547 176.916 69.7948 174.4 70.3329C177.2 70.871 179.152 72.3983 179.152 75.5658H179.149ZM161.272 68.4382H169.221C171.4 68.4382 171.938 67.5038 171.938 66.4308V66.3728C171.938 65.3546 171.4 64.4491 169.221 64.4491H161.272V68.4382Z" fill="#FB7C37"/>
<path d="M201.521 59.416V64.2526H188.055V67.3072H201.096V72.3146H188.055V75.569H201.689V80.4636H181.35V59.4192H201.518L201.521 59.416Z" fill="#FB7C37"/>
<path d="M123.105 0H93.9954C91.4595 0 89.3973 2.06222 89.3973 4.59811V20.474H76.4826C73.9822 20.474 71.949 22.5072 71.949 25.0077V33.4725C71.949 41.6827 78.6286 48.3623 86.8389 48.3623H114.038C121.574 48.3623 127.703 42.2304 127.703 34.6969V4.60134C127.703 2.06545 125.641 0.00322537 123.105 0.00322537V0ZM121.143 34.6969C121.143 38.6183 117.962 41.7987 114.041 41.7987H113.767C109.556 41.7987 106.14 38.3831 106.14 34.1717V25.0077C106.14 22.504 104.11 20.474 101.606 20.474H95.961V6.56044H121.139V34.6937L121.143 34.6969Z" fill="#FB7C37"/>
<path d="M48.7587 94.0692L52.0228 84.4219H54.6908L57.9549 94.0692H55.767L55.1193 92.1004H51.5846L50.9369 94.0692H48.7619H48.7587ZM52.1388 90.3508H54.5619L53.0861 85.7913H53.6307L52.142 90.3508H52.1388Z" fill="#FB7C37"/>
<path d="M67.0706 94.2251C66.3101 94.2251 65.6334 94.064 65.0373 93.745C64.4412 93.426 63.974 92.9878 63.6324 92.4304C63.2909 91.8729 63.1201 91.2414 63.1201 90.5325V84.4199H65.1276V90.4036C65.1276 90.7838 65.2113 91.1254 65.3789 91.4347C65.5464 91.744 65.7785 91.9793 66.0717 92.1533C66.3649 92.3273 66.6968 92.411 67.0673 92.411C67.4379 92.411 67.7827 92.324 68.0727 92.1533C68.3627 91.9793 68.5915 91.7408 68.759 91.4347C68.9266 91.1286 69.0103 90.7838 69.0103 90.4036V84.4199H71.0178V90.5325C71.0178 91.2414 70.847 91.8729 70.5054 92.4304C70.1639 92.9878 69.6967 93.426 69.1006 93.745C68.5045 94.064 67.8278 94.2251 67.0673 94.2251H67.0706Z" fill="#FB7C37"/>
<path d="M78.8993 94.0705V86.1696H76.4504V84.4199H83.3138V86.1696H80.9035V94.0705H78.8961H78.8993Z" fill="#FB7C37"/>
<path d="M93.2995 94.2248C92.5745 94.2248 91.9011 94.0992 91.2792 93.8478C90.6573 93.5965 90.1159 93.2453 89.6552 92.7909C89.1944 92.3366 88.8335 91.8082 88.5725 91.2056C88.3147 90.5998 88.1826 89.9457 88.1826 89.2368C88.1826 88.5279 88.3083 87.8738 88.5661 87.268C88.8206 86.6623 89.1783 86.137 89.6423 85.6892C90.1031 85.2413 90.6476 84.89 91.2663 84.6387C91.8882 84.3874 92.5648 84.2617 93.2995 84.2617C94.0342 84.2617 94.7108 84.3874 95.3327 84.6387C95.9546 84.89 96.4959 85.238 96.9567 85.6892C97.4175 86.137 97.7784 86.6655 98.0329 87.268C98.2875 87.8738 98.4164 88.5279 98.4164 89.2368C98.4164 89.9457 98.2875 90.5998 98.0265 91.2056C97.7687 91.8114 97.4078 92.3398 96.9438 92.7909C96.4798 93.2421 95.9385 93.5965 95.3198 93.8478C94.6979 94.0992 94.0245 94.2248 93.2995 94.2248ZM93.2995 92.4107C93.7409 92.4107 94.1469 92.3334 94.5239 92.1787C94.9009 92.024 95.2296 91.8049 95.5132 91.5246C95.7967 91.2443 96.0191 90.9092 96.1737 90.5225C96.3284 90.1326 96.4057 89.7073 96.4057 89.24C96.4057 88.7728 96.3284 88.3475 96.1737 87.964C96.0191 87.5806 95.7967 87.2455 95.5132 86.9619C95.2296 86.6784 94.8977 86.4593 94.5239 86.3078C94.1469 86.1564 93.7409 86.0823 93.2995 86.0823C92.8581 86.0823 92.4521 86.1564 92.0751 86.3078C91.6981 86.4593 91.3694 86.6784 91.0826 86.9619C90.7991 87.2455 90.5767 87.5806 90.4221 87.964C90.2674 88.3475 90.1901 88.7728 90.1901 89.24C90.1901 89.7073 90.2674 90.1326 90.4221 90.5225C90.5767 90.9124 90.7991 91.2443 91.0826 91.5246C91.3662 91.8049 91.6981 92.024 92.0751 92.1787C92.4521 92.3334 92.8581 92.4107 93.2995 92.4107Z" fill="#FB7C37"/>
<path d="M105.734 94.0705V86.1696H103.285V84.4199H110.148V86.1696H107.738V94.0705H105.731H105.734Z" fill="#FB7C37"/>
<path d="M115.697 94.0692V84.4219H122.187V86.1715H117.704V88.3594H121.926V90.1091H117.704V92.3228H122.187V94.0724H115.697V94.0692Z" fill="#FB7C37"/>
<path d="M132.456 94.2248C131.766 94.2248 131.125 94.0992 130.532 93.8478C129.939 93.5965 129.424 93.2485 128.986 92.7974C128.544 92.3495 128.203 91.8211 127.955 91.2185C127.706 90.6159 127.584 89.9522 127.584 89.2368C127.584 88.5215 127.706 87.8577 127.945 87.2487C128.183 86.6397 128.528 86.1145 128.97 85.6698C129.411 85.2252 129.927 84.8804 130.516 84.6323C131.106 84.3874 131.754 84.2617 132.453 84.2617C133.152 84.2617 133.78 84.3777 134.338 84.6129C134.895 84.8449 135.369 85.1575 135.756 85.5442C136.145 85.934 136.419 86.3658 136.584 86.8395L134.808 87.6934C134.644 87.2262 134.357 86.8395 133.948 86.5334C133.539 86.2273 133.039 86.0726 132.453 86.0726C131.866 86.0726 131.383 86.2079 130.951 86.4754C130.519 86.7428 130.184 87.1134 129.946 87.5838C129.707 88.0543 129.588 88.6053 129.588 89.2336C129.588 89.8619 129.707 90.4162 129.946 90.893C130.184 91.3699 130.519 91.7405 130.951 92.0079C131.383 92.2754 131.882 92.4107 132.453 92.4107C133.023 92.4107 133.539 92.256 133.948 91.9499C134.357 91.6438 134.644 91.2572 134.808 90.7899L136.584 91.6438C136.419 92.1175 136.142 92.5493 135.756 92.9392C135.366 93.3291 134.895 93.6384 134.338 93.8704C133.78 94.1024 133.152 94.2216 132.453 94.2216L132.456 94.2248Z" fill="#FB7C37"/>
<path d="M142.416 94.0692V84.4219H144.423V88.5914H148.18V84.4219H150.188V94.0692H148.18V90.3379H144.423V94.0692H142.416Z" fill="#FB7C37"/>
</svg>
