<svg width="404" height="575" viewBox="0 0 404 575" fill="none" xmlns="http://www.w3.org/2000/svg">
<path d="M402.866 98.95C402.866 152.782 359.182 196.466 305.35 196.466C286.487 196.466 268.065 191.06 252.29 180.801C251.849 180.581 251.408 180.25 250.966 179.919C218.645 158.187 202.319 119.358 209.489 81.0795C209.71 79.7557 209.93 78.5423 210.261 77.2185C218.314 41.9188 245.23 13.8996 280.309 4.63339C284.942 3.41996 289.796 2.53746 294.539 1.9859C348.041 -3.97093 396.357 34.6382 402.204 88.1394C402.645 91.7797 402.866 95.3097 402.866 98.95Z" fill="#FB7C37" stroke="black" stroke-width="1.5"/>
<path d="M383.119 157.195C352.232 198.01 295.201 208.048 252.29 180.25L253.062 177.933C252.4 178.485 251.738 178.926 251.076 179.478C233.867 191.281 209.047 179.588 207.944 169.55C207.393 163.703 209.819 144.619 212.467 128.183C214.563 115.166 216.769 103.693 217.652 101.708C218.093 100.936 218.755 100.494 219.637 100.163C225.153 97.7365 240.045 97.4056 245.671 98.2881C246.884 98.5087 247.656 98.7294 247.877 99.0603C248.98 101.046 246.002 125.425 246.002 125.425C246.002 125.425 256.702 110.312 262.218 103.693C262.218 103.693 262.218 103.693 262.218 103.583C267.292 97.4056 276.779 83.7269 301.378 83.6166C303.364 83.6166 305.46 83.727 307.666 83.8373C307.776 83.8373 315.608 84.2785 324.875 85.6023H325.206C371.426 92.3313 378.376 131.933 383.119 157.195Z" fill="#111111"/>
<path d="M239.714 103.693C245.009 100.163 244.457 98.1778 249.863 93.7654C252.069 91.8901 254.827 90.6766 257.805 90.3457C258.798 90.2354 259.68 89.3529 259.57 88.3601C259.57 88.2498 259.57 88.0292 259.46 87.9188C258.798 86.0435 257.364 83.9476 253.613 84.6095C250.083 85.161 246.664 86.4848 243.575 88.5807C243.575 88.5807 246.995 73.468 247.215 66.8493C247.436 60.2306 244.016 58.7965 241.81 64.974C240.155 70.269 238.721 75.5639 237.728 80.9692C237.728 80.9692 235.963 68.173 234.529 62.8781C233.095 57.5831 229.014 56.48 229.676 63.0987C230.337 69.7174 230.558 80.197 230.558 80.197L228.352 79.8661C228.352 79.8661 225.484 70.269 222.285 64.974C219.086 59.679 215.887 64.0915 218.313 70.9308C219.748 74.902 220.961 78.8733 221.954 82.9548C221.954 82.9548 216.218 78.432 211.364 76.998C206.51 75.5639 208.496 81.4104 212.577 83.727C214.894 85.0507 216.879 86.8157 218.313 89.022C218.313 89.022 215.445 99.0603 223.278 103.804C223.388 103.804 235.743 106.892 239.714 103.693Z" fill="#FB7C37"/>
<path d="M233.536 105.679C230.116 105.569 226.696 105.127 223.277 104.355L223.166 104.245C215.665 99.7222 217.43 90.6766 217.871 89.1322C216.437 87.1466 214.562 85.3816 212.466 84.1682C209.598 82.5135 207.612 79.0939 208.385 77.2186C208.605 76.5567 209.488 75.6742 211.804 76.3361C215.224 77.5495 218.423 79.3145 221.291 81.4104C220.739 79.4248 219.636 75.4536 218.092 70.9308C216.548 66.408 217.32 62.9884 218.974 62.1059C219.636 61.7749 221.181 61.444 222.946 64.5327C225.814 69.2761 228.351 77.4392 228.902 79.2042L230.116 79.3145C230.116 76.998 229.895 68.5039 229.233 62.9884C228.792 58.7965 230.226 58.0243 230.888 57.914C232.432 57.5831 234.308 59.679 235.08 62.5471C236.073 66.1874 237.176 73.3577 237.838 77.5495C238.72 73.137 239.934 68.8349 241.368 64.5327C242.471 61.5543 243.905 60.0099 245.449 60.2306C246.994 60.4512 247.986 62.9884 247.876 66.6287C247.656 72.1442 245.339 83.2857 244.456 87.1467C247.325 85.492 250.303 84.3889 253.502 83.8373C256.701 83.2857 258.907 84.6095 259.9 87.5879C260.121 88.2498 260.01 89.0219 259.569 89.6838C259.128 90.3457 258.466 90.6766 257.694 90.7869C254.826 91.1179 252.178 92.221 250.082 94.0963C248.317 95.5303 246.663 97.185 245.339 98.95C243.905 100.936 242.03 102.59 239.934 104.024C238.61 105.348 236.073 105.679 233.536 105.679ZM223.608 103.252C224.711 103.473 235.852 106.01 239.382 103.252C241.368 101.928 243.133 100.384 244.567 98.3984C246.001 96.5231 247.656 94.8685 249.531 93.3241C251.847 91.3385 254.715 90.1251 257.694 89.7941C258.135 89.7941 258.466 89.5735 258.687 89.2426C258.907 88.9116 259.018 88.4704 258.797 88.1395C258.025 85.7126 256.26 84.7198 253.612 85.161C250.082 85.7126 246.773 87.0363 243.795 89.0219C243.574 89.2426 243.243 89.1323 243.022 88.9116C242.912 88.8013 242.912 88.5807 242.912 88.4704C242.912 88.3601 246.332 73.3577 246.552 66.8493C246.663 63.6502 245.891 61.7749 245.008 61.5543C244.126 61.3337 243.133 62.4368 242.14 65.0843C240.485 70.2689 239.051 75.6742 238.058 80.9692C238.058 81.1898 237.727 81.4104 237.507 81.4104C237.286 81.4104 236.955 81.1898 236.955 80.9692C236.955 80.8589 235.19 68.0627 233.756 62.9884C232.984 60.2306 231.55 59.0171 230.888 59.1274C230.226 59.2378 229.785 60.4512 230.116 62.9884C230.888 69.4968 230.998 79.9764 230.998 80.0867C230.998 80.197 230.888 80.4176 230.778 80.5279C230.667 80.6383 230.447 80.6382 230.337 80.6382L228.13 80.3073C227.91 80.3073 227.799 80.0867 227.689 79.8661C227.689 79.7558 224.821 70.2689 221.732 65.0843C220.85 63.5399 219.857 62.7677 219.085 63.0987C218.092 63.5399 217.32 66.5183 218.754 70.4896C220.188 74.4608 221.401 78.432 222.394 82.5135C222.504 82.8445 222.284 83.0651 221.953 83.1754C221.843 83.1754 221.622 83.1754 221.512 83.0651C221.401 83.0651 215.775 78.6526 211.142 77.2186C210.48 76.998 209.377 76.7773 209.157 77.4392C208.715 78.5423 210.149 81.5207 212.797 82.9548C215.224 84.2785 217.209 86.1538 218.754 88.4704C218.864 88.5807 218.864 88.8013 218.864 88.9116C218.864 89.5735 216.327 98.8397 223.608 103.252Z" fill="#111111"/>
<path d="M220.96 84.6095C220.739 84.6095 220.629 84.4991 220.519 84.3888C220.298 84.1682 220.408 83.8373 220.629 83.6166C227.91 78.6526 235.08 78.3217 242.14 82.6238C242.36 82.8445 242.471 83.1754 242.25 83.396C242.14 83.6166 241.809 83.7269 241.588 83.6166C234.859 79.5351 228.241 79.866 221.291 84.6095C221.181 84.6095 221.07 84.6095 220.96 84.6095Z" fill="#111111"/>
<path d="M243.687 89.1323C243.576 89.1323 243.466 89.1323 243.356 89.022C240.818 87.6982 237.95 87.257 235.193 87.8085C234.862 87.8085 234.641 87.6982 234.531 87.3673C234.42 87.0364 234.641 86.8157 234.972 86.7054C238.061 86.1539 241.149 86.7054 243.907 88.1395C244.128 88.2498 244.238 88.691 244.017 88.9116C244.017 89.022 243.797 89.022 243.687 89.1323Z" fill="#111111"/>
<path d="M253.944 175.065H253.834C253.503 174.955 253.393 174.734 253.393 174.403C253.503 174.072 261.225 142.854 272.477 111.084C272.587 110.753 272.918 110.643 273.138 110.753C273.469 110.864 273.58 111.195 273.469 111.415C262.218 143.075 254.496 174.293 254.385 174.624C254.385 174.844 254.165 175.065 253.944 175.065Z" fill="#FB7C37"/>
<path d="M238.941 157.084C238.83 157.084 238.83 157.084 238.72 157.084C238.389 156.974 238.279 156.643 238.389 156.422C244.566 138.111 245.449 129.175 245.449 129.065C245.449 128.734 245.78 128.514 246.001 128.514C246.331 128.514 246.552 128.844 246.442 129.065C246.442 129.175 245.559 138.111 239.272 156.643C239.382 156.974 239.161 157.195 238.941 157.084Z" fill="#111111"/>
<path d="M323.88 64.9739C323.88 76.0051 324.983 88.9116 324.983 88.9116C324.983 88.9116 321.784 99.1706 310.863 99.6118C299.942 100.053 300.052 90.6766 300.163 88.8013C300.273 86.926 302.148 80.7485 302.479 78.7629C302.81 76.7773 323.88 64.9739 323.88 64.9739Z" fill="#FB7C37"/>
<path d="M310.205 100.163C306.785 100.163 304.248 99.1706 302.372 97.2953C299.615 94.4272 299.504 90.3457 299.615 88.691C299.946 86.5951 300.387 84.4991 301.049 82.4032C301.49 80.8589 301.821 79.3145 302.041 78.5423C302.483 76.3361 318.699 67.1802 323.663 64.4224C323.883 64.3121 323.993 64.3121 324.214 64.4224C324.324 64.5327 324.435 64.7533 324.435 64.8636C324.435 75.7845 325.538 88.691 325.538 88.8013C325.538 88.9116 325.538 88.9116 325.538 89.0219C325.538 89.1322 322.118 99.7222 310.977 100.053L310.205 100.163ZM323.332 65.9668C313.514 71.372 303.476 77.6598 303.034 78.8732C302.924 79.7557 302.483 81.1898 302.041 82.8445C301.49 84.8301 301.049 86.8157 300.718 88.9116C300.607 90.456 300.718 94.0963 303.145 96.6334C304.91 98.3984 307.447 99.2809 310.866 99.0603C320.794 98.7294 324.104 90.0147 324.435 88.9116C324.324 87.5879 323.442 76.1154 323.332 65.9668Z" fill="#111111"/>
<path d="M363.373 177.271C363.042 177.271 362.822 177.051 362.822 176.72C361.939 143.075 359.071 123.439 358.961 123.219C358.961 122.888 359.071 122.667 359.402 122.557C359.733 122.557 359.954 122.667 360.064 122.998C360.064 123.219 363.042 142.854 363.925 176.609C363.925 177.051 363.704 177.271 363.373 177.271Z" fill="#FB7C37"/>
<path d="M275.674 38.9404C275.674 38.9404 265.967 31.5495 272.917 14.2305C279.866 -3.08841 295.641 -1.43374 303.363 6.61902C311.084 14.6718 324.322 13.7893 331.492 20.5183C338.662 27.2473 334.14 37.1754 334.14 37.1754C334.14 37.1754 354.437 42.36 341.089 64.3121C341.089 64.3121 329.837 71.4824 320.351 68.2833C310.864 65.0843 275.674 38.9404 275.674 38.9404Z" fill="#FB7C37"/>
<path d="M325.758 69.7174C323.883 69.7174 322.118 69.4967 320.353 68.8349C310.866 65.7461 276.78 40.4847 275.346 39.3816C275.235 39.2713 265.418 31.5495 272.477 14.1202C276.338 4.5231 282.406 1.54468 286.818 0.662188C293.106 -0.44093 299.394 1.655 303.806 6.2881C307.777 10.3696 313.293 12.1346 318.698 13.7893C323.772 15.3337 328.516 16.878 332.046 20.1874C338.444 26.1442 335.907 34.5279 335.024 36.8445C337.01 37.5063 342.967 39.8229 345.394 45.7797C347.49 50.8541 346.276 57.2521 341.753 64.643C341.753 64.7533 341.643 64.7533 341.533 64.8636C341.091 65.0843 333.701 69.7174 325.758 69.7174ZM276.007 38.4991C276.559 38.9404 311.418 64.7533 320.684 67.8421C329.288 70.7102 339.657 64.643 340.76 63.9812C345.063 56.9212 346.166 50.9644 344.29 46.221C341.643 39.8229 334.142 37.8373 334.142 37.8373C334.031 37.8373 333.811 37.727 333.811 37.5063C333.701 37.396 333.701 37.1754 333.811 37.0651C333.811 36.9548 338.223 27.468 331.274 21.0699C327.964 17.9811 323.331 16.5471 318.367 15.0027C312.852 13.2377 307.226 11.4727 303.034 7.17059C298.952 2.86843 292.885 0.882818 287.039 1.87562C282.847 2.64781 277.111 5.5159 273.47 14.6718C266.741 31.1082 275.677 38.1682 276.007 38.4991Z" fill="#111111"/>
<path d="M280.529 27.2474C280.529 27.2474 258.687 70.3793 284.279 79.2042C309.871 88.0291 329.176 70.8205 329.176 70.8205C337.56 75.7845 345.502 68.6143 341.2 64.4224C336.898 60.2306 331.272 66.2977 331.272 66.2977C331.272 66.2977 322.226 58.9068 326.859 43.7941C326.859 43.7941 313.843 45.89 309.43 35.0795C309.43 35.0795 282.404 34.6382 276.888 21.8421" fill="#FB7C37"/>
<path d="M299.062 82.2929C293.988 82.2929 288.914 81.4104 284.17 79.7558C279.096 78.2114 275.014 74.3505 273.029 69.4968C270.381 62.8781 270.712 53.6119 274.132 42.2498C275.676 37.0651 277.662 31.9908 279.979 27.0267C278.324 25.703 277.11 23.938 276.228 21.9524C276.118 21.7318 276.118 21.4008 276.449 21.1802C276.779 20.9596 277 21.0699 277.221 21.4008C277.221 21.4008 277.221 21.5112 277.331 21.5112C282.626 33.8661 309.101 34.3073 309.432 34.3073C309.652 34.3073 309.873 34.4176 309.873 34.6382C314.175 44.8972 326.64 43.0219 326.751 43.0219C326.971 43.0219 327.082 43.0219 327.302 43.2426C327.413 43.3529 327.523 43.5735 327.413 43.7941C325.096 51.4056 326.309 57.0315 327.854 60.3409C328.626 62.2162 329.839 63.9812 331.274 65.4152C332.266 64.5327 334.803 62.4368 337.561 62.3265C339.106 62.3265 340.54 62.8781 341.643 63.9812C343.408 65.5256 343.518 68.173 341.974 69.938C339.767 72.9164 334.583 74.3505 329.288 71.4824C320.684 78.3217 310.094 82.1826 299.062 82.2929ZM280.971 27.6886C279.758 30.1155 268.175 54.3841 274.132 69.0555C276.007 73.6886 279.758 77.2186 284.501 78.763C289.134 80.4176 294.098 81.3001 299.062 81.3001C309.873 81.0795 320.463 77.3289 328.847 70.4896C329.067 70.3793 329.288 70.2689 329.509 70.3793C334.693 73.3577 339.437 71.5927 341.091 69.2761C342.305 67.9524 342.194 65.9668 340.871 64.7534C339.988 63.8709 338.885 63.4296 337.672 63.4296C334.583 63.5399 331.715 66.5183 331.715 66.5183C331.494 66.739 331.163 66.739 330.943 66.6287C329.178 64.974 327.744 63.0987 326.861 60.8925C325.317 57.4728 323.993 51.9572 326.089 44.3457C323.11 44.5663 313.072 44.6766 309.101 35.5207C304.357 35.3001 299.724 34.7486 295.091 33.7557C288.914 32.2114 284.17 30.2258 280.971 27.6886Z" fill="#111111"/>
<path d="M332.597 69.1658C332.486 69.1658 332.376 69.1658 332.266 69.0555C332.045 68.8348 331.935 68.5039 332.155 68.2833C333.369 66.7389 336.347 64.2018 339.436 66.1874C339.657 66.2977 339.767 66.7389 339.657 66.9596C339.436 67.1802 339.105 67.2905 338.884 67.0699C336.016 65.1946 333.259 68.7245 333.148 68.8348C332.928 69.0555 332.707 69.1658 332.597 69.1658Z" fill="#111111"/>
<path d="M304.909 46.9931C305.792 46.6622 306.674 46.4416 307.667 46.3313C308.549 46.221 309.542 46.221 310.425 46.3313C311.307 46.4416 312.3 46.6622 313.072 46.9931C313.955 47.3241 314.727 47.7653 315.499 48.2066C315.72 48.4272 315.83 48.7581 315.609 48.9787C315.499 49.1994 315.278 49.3097 315.058 49.1994C313.403 48.7581 311.748 48.4272 310.094 48.2066C309.211 48.0963 308.439 47.9859 307.667 47.9859C306.895 47.9859 306.012 47.9859 305.13 47.9859C304.799 47.9859 304.578 47.7653 304.578 47.4344C304.578 47.3241 304.688 47.1034 304.909 46.9931Z" fill="#111111"/>
<path d="M280.306 40.5951C281.299 40.4848 282.402 40.4848 283.395 40.5951C284.388 40.7054 285.381 40.926 286.374 41.1466C287.366 41.3672 288.359 41.6982 289.242 42.1394C290.234 42.4704 291.117 43.0219 291.999 43.5735C292.22 43.7941 292.33 44.1251 292.11 44.3457C291.999 44.5663 291.779 44.6766 291.558 44.5663C289.683 44.125 287.808 43.4632 285.932 43.0219C284.94 42.8013 284.057 42.5807 283.064 42.3601C282.071 42.1394 281.189 41.9188 280.196 41.8085C279.865 41.8085 279.645 41.5879 279.645 41.2569C279.645 40.926 280.086 40.5951 280.306 40.5951Z" fill="#111111"/>
<path d="M288.802 61.2234H288.691C286.816 61.2234 285.382 59.7893 285.382 57.914C285.382 57.914 285.382 57.914 285.382 57.8037C285.272 56.9212 285.603 55.9284 286.375 55.2665C287.699 54.384 289.243 53.9428 290.787 54.0531C291.229 50.7437 291.449 47.3241 291.449 43.9044C291.449 43.5735 291.67 43.3528 292.001 43.3528C292.332 43.3528 292.552 43.5735 292.552 43.9044C292.663 47.5447 292.442 51.185 291.78 54.715C291.78 55.0459 291.449 55.1562 291.229 55.1562C291.229 55.1562 288.471 54.8253 287.147 56.0387C286.706 56.4799 286.485 57.0315 286.595 57.6934C286.485 58.9068 287.478 59.8996 288.691 60.0099H288.802C290.567 60.1202 292.001 58.9068 292.332 57.2521C292.332 56.9212 292.663 56.7006 292.994 56.8109C293.324 56.8109 293.545 57.1418 293.435 57.4728C292.883 59.679 291.008 61.2234 288.802 61.2234Z" fill="#111111"/>
<path d="M310.093 55.3769C309.651 57.1419 308.328 58.245 307.114 58.0243C305.901 57.8037 305.239 56.0387 305.68 54.3841C305.79 53.9428 306.011 53.3913 306.342 52.95L308.107 54.6047L307.776 51.8469C308.107 51.7366 308.328 51.7366 308.659 51.8469C309.872 52.0675 310.534 53.7222 310.093 55.3769Z" fill="#111111"/>
<path d="M286.266 49.6407C285.825 51.4057 284.501 52.5088 283.288 52.2882C282.075 52.0675 281.413 50.3025 281.854 48.6479C281.964 48.2066 282.185 47.6551 282.516 47.2138L284.281 48.8685L283.95 46.1107C284.281 46.0004 284.501 46.0004 284.832 46.1107C286.046 46.3313 286.708 47.8757 286.266 49.6407Z" fill="#111111"/>
<path d="M295.973 70.9308C293.877 70.8205 292.002 69.7174 290.788 68.0627C290.568 67.8421 290.678 67.5112 290.899 67.2905C291.119 67.0699 291.45 67.1802 291.671 67.4008C293.215 69.1658 294.87 70.0483 296.304 69.8277C297.738 69.6071 299.062 68.6143 299.613 67.1802C299.723 66.9596 300.054 66.8493 300.385 66.9596C300.606 67.0699 300.716 67.4008 300.606 67.7318C299.834 69.4968 298.289 70.7102 296.414 71.0411L295.973 70.9308Z" fill="#111111"/>
<path d="M113.624 466.211C127.723 473.676 125.546 493.477 115.801 515.974C106.056 538.47 90.7123 574.133 90.7123 574.133L0 530.591L48.4144 449.106C48.4144 449.106 55.1531 437.702 68.9413 443.404C82.7296 449.106 113.624 466.211 113.624 466.211Z" fill="#111111"/>
<path d="M247.463 386.074L152.708 429.408L139.542 441.33L108.648 426.816L107.818 400.588L117.563 384.933L69.6672 253.478C68.9415 251.301 68.7342 249.02 69.1489 246.843L70.9113 238.031C71.2223 236.58 71.7406 235.128 72.57 233.781L144.725 418.108C145.347 419.767 147.317 420.7 148.976 419.974H149.079L252.647 374.359C254.202 378.92 251.921 384 247.463 386.074Z" fill="#111111"/>
<path d="M139.542 441.849C139.438 441.849 139.438 441.849 139.334 441.849L108.44 427.335C108.233 427.231 108.129 427.024 108.129 426.92L107.3 400.691C107.3 400.588 107.3 400.484 107.403 400.38L116.941 384.933L69.0451 253.686C68.2157 251.508 68.0084 249.124 68.5267 246.74L70.2892 237.928C70.6002 236.372 71.2222 234.817 72.0516 233.573C72.2589 233.366 72.5699 233.262 72.7773 233.47C72.8809 233.573 72.8809 233.573 72.9846 233.677L145.14 418.004C145.451 418.73 145.969 419.248 146.695 419.559C147.421 419.87 148.146 419.87 148.872 419.559L252.439 373.944C252.543 373.84 252.75 373.84 252.854 373.944C252.958 374.048 253.061 374.151 253.165 374.255C254.72 379.231 252.336 384.519 247.671 386.696L153.019 430.03L139.853 441.849C139.853 441.849 139.749 441.849 139.542 441.849ZM109.27 426.505L139.542 440.812L152.5 429.097L152.604 428.993L247.256 385.659C251.299 383.793 253.476 379.335 252.336 374.981L149.39 420.389C147.421 421.218 145.14 420.389 144.31 418.419V418.315L72.5699 234.921C72.0516 235.854 71.7405 236.994 71.5332 238.031L69.7708 246.843C69.3561 249.02 69.5635 251.197 70.2892 253.167L118.185 384.622C118.289 384.726 118.289 384.933 118.185 385.037L108.544 400.588L109.27 426.505Z" fill="#111111"/>
<path d="M252.751 374.255L149.183 419.87C147.525 420.596 145.555 419.87 144.829 418.212V418.108L72.5703 233.781C74.1254 231.396 76.4061 229.53 79.1016 228.597L171.369 197.599C176.138 195.941 181.425 198.429 183.291 203.094L252.44 373.529C252.544 373.737 252.647 374.048 252.751 374.255Z" fill="#FB7C37"/>
<path d="M147.836 420.7C147.318 420.7 146.799 420.596 146.385 420.389C145.452 419.974 144.726 419.248 144.311 418.212L72.1563 233.884C72.1563 233.781 72.1563 233.781 72.1563 233.677C72.1563 233.573 72.1562 233.47 72.2599 233.366C73.815 230.878 76.3031 228.908 79.1022 227.975L171.266 196.977C176.346 195.319 181.84 197.807 183.914 202.783L253.062 373.218C253.166 373.426 253.27 373.737 253.373 373.944C253.477 374.151 253.373 374.462 253.062 374.566L149.495 420.181C148.873 420.596 148.355 420.7 147.836 420.7ZM73.193 233.781L145.244 417.797C145.555 418.523 146.074 419.041 146.799 419.352C147.525 419.663 148.251 419.663 148.977 419.352L252.129 373.84C252.129 373.737 252.026 373.737 252.026 373.633L182.773 203.301C180.907 198.843 176.035 196.563 171.473 198.118L79.3096 229.115C76.8214 229.945 74.6444 231.604 73.193 233.781Z" fill="#111111"/>
<path d="M83.1445 236.58L174.168 205.997C174.272 205.997 174.375 205.997 174.375 205.997C174.686 205.997 174.997 206.204 175.101 206.515L241.347 369.59L150.842 409.503L83.1445 236.58Z" fill="#FB7C37"/>
<path d="M150.84 410.022C150.737 410.022 150.737 410.022 150.633 410.022C150.529 410.022 150.426 409.814 150.322 409.711L82.6246 236.683C82.521 236.58 82.521 236.372 82.6246 236.269C82.7283 236.165 82.832 236.061 82.9356 235.958L173.959 205.375C174.063 205.375 174.27 205.271 174.374 205.271C174.892 205.271 175.41 205.582 175.618 206.1L241.864 369.383C241.967 369.694 241.864 369.901 241.553 370.005L151.048 410.022C150.944 410.022 150.944 410.022 150.84 410.022ZM83.8687 236.891L151.151 408.881L240.723 369.383L174.685 206.619C174.685 206.515 174.581 206.411 174.477 206.411L83.8687 236.891Z" fill="#111111"/>
<path d="M127.411 316.303L190.754 291.111C193.553 289.97 196.663 291.318 197.803 294.117L201.432 303.137C202.572 305.936 201.225 309.046 198.425 310.186L135.082 335.482C132.283 336.622 129.173 335.275 128.033 332.476L124.404 323.456C123.368 320.657 124.715 317.443 127.411 316.303Z" fill="#FB7C37"/>
<path d="M133.115 336.415C132.285 336.415 131.456 336.208 130.73 335.897C129.279 335.275 128.138 334.134 127.516 332.683L123.888 323.664C122.644 320.657 124.199 317.132 127.205 315.992L190.548 290.696C192 290.074 193.659 290.178 195.11 290.8C196.561 291.422 197.702 292.562 198.324 294.014L201.952 303.033C202.574 304.484 202.471 306.143 201.849 307.595C201.227 309.046 200.086 310.186 198.635 310.808L135.292 336.104C134.566 336.208 133.84 336.415 133.115 336.415ZM192.726 291.318C192.103 291.318 191.481 291.422 190.859 291.629L127.516 316.925C125.028 317.962 123.784 320.761 124.821 323.249L128.449 332.268C129.486 334.756 132.285 336 134.773 334.964L198.116 309.668C199.36 309.15 200.293 308.217 200.812 307.076C201.33 305.832 201.33 304.484 200.916 303.344L197.287 294.325C196.561 292.459 194.695 291.215 192.726 291.318Z" fill="#111111"/>
<path d="M136.846 339.94L200.189 314.748C202.988 313.607 206.098 314.955 207.238 317.754L210.867 326.774C212.007 329.573 210.659 332.683 207.86 333.823L144.517 359.015C141.718 360.156 138.608 358.808 137.468 356.009L133.839 346.99C132.699 344.19 134.046 340.977 136.846 339.94Z" fill="#FB7C37"/>
<path d="M142.444 359.949C140.06 359.949 137.779 358.497 136.95 356.216L133.321 347.197C132.077 344.191 133.632 340.666 136.639 339.525L199.982 314.23C201.433 313.608 203.092 313.711 204.544 314.333C205.995 314.955 207.135 316.096 207.757 317.547L211.386 326.566C212.63 329.573 211.075 333.098 208.068 334.238L144.725 359.534C144 359.741 143.17 359.949 142.444 359.949ZM202.159 314.748C201.537 314.748 200.915 314.852 200.293 315.059L136.95 340.355C134.462 341.391 133.218 344.191 134.254 346.679L137.883 355.698C138.92 358.186 141.719 359.43 144.207 358.393L207.55 333.201C210.038 332.165 211.282 329.366 210.245 326.877L206.617 317.858C206.099 316.614 205.166 315.681 204.025 315.163C203.507 314.955 202.885 314.852 202.159 314.748Z" fill="#111111"/>
<path d="M136.846 319.206C136.121 321.59 135.395 323.975 134.773 326.463C134.669 326.774 134.877 327.085 135.188 327.085C135.499 327.188 135.81 326.981 135.81 326.67C136.432 324.286 137.157 321.901 137.883 319.517C138.091 318.895 137.054 318.584 136.846 319.206Z" fill="#111111"/>
<path d="M132.284 322.42C134.98 323.042 137.675 323.664 140.474 324.286C141.096 324.389 141.407 323.456 140.785 323.249C138.09 322.627 135.395 322.005 132.595 321.383C131.973 321.176 131.662 322.212 132.284 322.42Z" fill="#111111"/>
<path d="M134.254 320.242C135.187 322.212 136.223 324.182 137.467 326.048C137.778 326.67 138.711 326.152 138.4 325.53C137.26 323.767 136.223 321.901 135.29 319.931C135.187 319.62 134.876 319.517 134.668 319.517C134.357 319.724 134.15 320.035 134.254 320.242Z" fill="#111111"/>
<path d="M133.113 324.804C135.497 323.975 137.778 322.834 139.852 321.486C140.37 321.072 139.852 320.242 139.333 320.553C137.26 321.901 135.083 322.938 132.802 323.767C132.18 324.078 132.491 325.011 133.113 324.804Z" fill="#111111"/>
<path d="M150.011 314.541C149.285 316.925 148.559 319.309 147.937 321.798C147.833 322.109 148.041 322.42 148.352 322.42C148.663 322.523 148.974 322.316 148.974 322.005C149.596 319.62 150.322 317.132 151.047 314.748C151.151 314.437 150.944 314.126 150.633 314.126C150.322 314.126 150.011 314.23 150.011 314.541Z" fill="#111111"/>
<path d="M145.45 317.754C148.146 318.376 150.841 318.998 153.64 319.62C154.262 319.724 154.573 318.791 153.951 318.584C151.256 317.962 148.56 317.34 145.761 316.718C145.036 316.614 144.828 317.547 145.45 317.754Z" fill="#111111"/>
<path d="M147.422 315.577C148.355 317.547 149.392 319.517 150.636 321.383C150.843 321.59 151.154 321.694 151.361 321.487C151.569 321.383 151.672 321.072 151.569 320.864C150.428 319.102 149.392 317.236 148.459 315.266C148.355 314.955 148.044 314.852 147.837 314.852C147.526 315.059 147.422 315.37 147.422 315.577Z" fill="#111111"/>
<path d="M146.279 320.139C148.663 319.309 150.944 318.169 153.018 316.821C153.536 316.51 153.018 315.577 152.499 315.888C150.426 317.236 148.249 318.273 145.968 319.102C145.346 319.413 145.657 320.346 146.279 320.139Z" fill="#111111"/>
<path d="M163.179 309.875C162.453 312.26 161.727 314.644 161.105 317.132C161.001 317.443 161.209 317.754 161.52 317.754C161.831 317.858 162.142 317.651 162.142 317.34C162.764 314.955 163.49 312.571 164.215 310.186C164.319 309.564 163.386 309.253 163.179 309.875Z" fill="#111111"/>
<path d="M158.618 312.985C161.314 313.607 164.009 314.23 166.808 314.852C167.43 314.955 167.741 314.022 167.119 313.815C164.424 313.193 161.728 312.571 158.929 311.949C158.307 311.845 157.996 312.882 158.618 312.985Z" fill="#111111"/>
<path d="M160.588 310.912C161.521 312.882 162.661 314.851 163.802 316.718C164.113 317.34 165.046 316.821 164.735 316.199C163.594 314.437 162.558 312.571 161.625 310.601C161.521 310.29 161.21 310.186 161.003 310.186C160.692 310.394 160.588 310.705 160.588 310.912Z" fill="#111111"/>
<path d="M159.343 315.474C161.727 314.644 164.008 313.504 166.082 312.156C166.6 311.741 166.082 310.912 165.563 311.223C163.49 312.571 161.313 313.607 159.032 314.437C158.514 314.644 158.825 315.681 159.343 315.474Z" fill="#111111"/>
<path d="M176.343 305.21C175.617 307.595 174.891 309.979 174.269 312.363C174.165 312.674 174.373 312.985 174.684 312.985C174.995 313.089 175.306 312.882 175.306 312.571C175.928 310.186 176.654 307.802 177.379 305.314C177.483 304.795 176.55 304.484 176.343 305.21Z" fill="#111111"/>
<path d="M171.784 308.32C174.48 308.942 177.175 309.564 179.974 310.186C180.596 310.29 180.907 309.357 180.285 309.15C177.59 308.528 174.895 307.906 172.095 307.284C171.473 307.18 171.162 308.113 171.784 308.32Z" fill="#111111"/>
<path d="M173.754 306.247C174.687 308.32 175.724 310.186 176.968 312.052C177.279 312.674 178.212 312.156 177.901 311.534C176.76 309.772 175.724 307.906 174.791 305.936C174.687 305.625 174.48 305.521 174.169 305.521C173.858 305.728 173.754 305.936 173.754 306.247Z" fill="#111111"/>
<path d="M172.511 310.808C174.895 309.979 177.176 308.839 179.25 307.491C179.768 307.18 179.25 306.247 178.731 306.558C176.658 307.906 174.481 308.942 172.2 309.772C171.682 309.979 171.889 311.016 172.511 310.808Z" fill="#111111"/>
<path d="M148.145 340.873C147.42 343.257 146.694 345.642 146.072 348.13C145.968 348.441 146.176 348.752 146.487 348.752C146.798 348.856 147.109 348.648 147.109 348.337C147.731 345.953 148.456 343.568 149.182 341.08C149.389 340.458 148.456 340.147 148.145 340.873Z" fill="#111111"/>
<path d="M143.689 343.983C146.384 344.605 149.08 345.227 151.879 345.849C152.501 345.953 152.812 345.02 152.19 344.812C149.494 344.19 146.799 343.568 144 342.946C143.274 342.843 143.067 343.776 143.689 343.983Z" fill="#111111"/>
<path d="M145.66 341.91C146.593 343.88 147.63 345.849 148.874 347.715C149.185 348.337 150.118 347.819 149.807 347.197C148.666 345.435 147.63 343.569 146.696 341.599C146.593 341.288 146.282 341.184 146.074 341.184C145.763 341.288 145.556 341.599 145.66 341.91Z" fill="#111111"/>
<path d="M144.412 346.471C146.796 345.642 149.077 344.501 151.15 343.154C151.669 342.739 151.15 341.91 150.632 342.221C148.559 343.568 146.382 344.605 144.101 345.435C143.479 345.642 143.79 346.679 144.412 346.471Z" fill="#111111"/>
<path d="M161.311 336.208C160.586 338.592 159.86 340.977 159.238 343.465C159.134 343.776 159.342 344.087 159.653 344.087C159.964 344.19 160.275 343.983 160.275 343.672C160.897 341.288 161.622 338.8 162.348 336.415C162.452 336.104 162.244 335.793 161.933 335.793C161.726 335.689 161.415 335.897 161.311 336.208Z" fill="#111111"/>
<path d="M156.855 339.318C159.55 339.94 162.246 340.562 165.045 341.184C165.667 341.288 165.978 340.355 165.356 340.147C162.66 339.525 159.965 338.903 157.166 338.281C156.44 338.178 156.233 339.111 156.855 339.318Z" fill="#111111"/>
<path d="M158.824 337.244C159.757 339.214 160.794 341.184 162.038 343.05C162.245 343.257 162.556 343.361 162.763 343.154C162.971 343.05 163.074 342.739 162.971 342.532C161.83 340.769 160.794 338.903 159.861 336.933C159.757 336.622 159.446 336.519 159.239 336.519C158.928 336.726 158.72 336.933 158.824 337.244Z" fill="#111111"/>
<path d="M157.581 341.806C159.966 340.977 162.247 339.836 164.32 338.489C164.838 338.178 164.32 337.245 163.802 337.556C161.728 338.903 159.551 339.94 157.27 340.769C156.752 340.977 156.959 342.013 157.581 341.806Z" fill="#111111"/>
<path d="M174.477 331.439C173.752 333.823 173.026 336.208 172.404 338.696C172.3 339.007 172.508 339.318 172.819 339.318C173.13 339.422 173.441 339.214 173.441 338.903C174.063 336.519 174.788 334.031 175.514 331.646C175.721 331.128 174.685 330.817 174.477 331.439Z" fill="#111111"/>
<path d="M170.021 334.653C172.716 335.275 175.412 335.897 178.211 336.519C178.833 336.622 179.144 335.689 178.522 335.482C175.826 334.86 173.131 334.238 170.332 333.616C169.606 333.409 169.399 334.445 170.021 334.653Z" fill="#111111"/>
<path d="M171.992 332.579C172.925 334.549 174.065 336.519 175.206 338.385C175.517 339.007 176.45 338.489 176.139 337.867C174.998 336.104 173.962 334.238 173.029 332.268C172.925 331.957 172.614 331.854 172.406 331.854C172.095 331.957 171.888 332.268 171.992 332.579Z" fill="#111111"/>
<path d="M170.745 337.037C173.13 336.208 175.411 335.067 177.484 333.72C178.002 333.305 177.484 332.476 176.966 332.787C174.892 334.134 172.715 335.171 170.434 336C169.916 336.312 170.123 337.348 170.745 337.037Z" fill="#111111"/>
<path d="M187.647 326.774C186.922 329.158 186.196 331.543 185.574 334.031C185.47 334.342 185.678 334.653 185.989 334.653C186.3 334.756 186.611 334.549 186.611 334.238C187.233 331.854 187.958 329.469 188.684 326.981C188.891 326.463 187.855 326.152 187.647 326.774Z" fill="#111111"/>
<path d="M183.187 329.988C185.882 330.61 188.578 331.232 191.377 331.854C191.999 331.957 192.31 331.024 191.688 330.817C188.992 330.195 186.297 329.573 183.498 328.951C182.772 328.744 182.565 329.78 183.187 329.988Z" fill="#111111"/>
<path d="M185.156 327.914C186.089 329.884 187.126 331.854 188.37 333.72C188.473 333.927 188.784 334.031 189.095 333.927C189.406 333.823 189.406 333.512 189.303 333.201C188.162 331.439 187.126 329.573 186.193 327.603C186.089 327.292 185.882 327.188 185.571 327.188C185.26 327.292 185.052 327.603 185.156 327.914Z" fill="#111111"/>
<path d="M183.914 332.372C186.298 331.543 188.579 330.402 190.652 329.054C191.171 328.743 190.652 327.81 190.134 328.121C188.061 329.469 185.883 330.506 183.603 331.335C182.981 331.646 183.292 332.683 183.914 332.372Z" fill="#111111"/>
<path d="M147.318 366.065L210.661 340.873C213.46 339.733 216.57 341.08 217.711 343.879L221.339 352.899C222.479 355.698 221.132 358.808 218.333 359.948L154.886 385.141C152.087 386.281 148.977 384.933 147.836 382.134L144.208 373.115C143.171 370.316 144.519 367.102 147.318 366.065Z" fill="#111111"/>
<path d="M63.0312 447.551C81.8994 409.711 86.6683 380.786 89.0527 365.858C91.4372 350.929 96.1024 333.512 101.493 328.432C106.884 323.353 135.186 315.163 141.614 315.992C148.042 316.821 146.694 329.573 137.571 339.422C131.558 345.849 125.027 351.758 117.977 357.046C117.977 357.046 119.117 374.462 117.562 385.037L133.735 424.536C136.016 430.134 142.236 433.037 148.042 431.067L152.811 429.512C152.811 429.512 142.236 447.24 130.106 455.326C117.977 463.412 115.178 474.609 115.178 474.609C115.178 474.609 78.4783 472.846 63.0312 447.551Z" fill="#FB7C37"/>
<path d="M115.178 475.024C114.763 475.024 78.0637 472.95 62.7203 447.758C62.6167 447.654 62.6167 447.447 62.7203 447.24C81.6922 409.192 86.461 379.853 88.6381 365.754C90.8152 351.655 95.4804 333.409 101.286 328.018C106.781 322.834 135.083 314.644 141.821 315.474C143.688 315.681 145.243 316.925 145.761 318.687C147.42 323.042 145.243 331.957 138.089 339.733C132.076 346.057 125.545 351.966 118.599 357.253C118.703 359.534 119.636 375.085 118.184 384.83L134.253 424.225C136.431 429.512 142.443 432.311 147.938 430.445L152.707 428.89C152.914 428.786 153.122 428.89 153.329 429.097C153.433 429.305 153.433 429.512 153.329 429.719C153.225 429.927 142.547 447.654 130.418 455.637C118.599 463.516 115.696 474.505 115.696 474.609C115.489 474.816 115.385 475.024 115.178 475.024ZM63.6534 447.551C77.96 470.669 110.72 473.676 114.763 473.987C117.459 466.108 122.746 459.369 129.796 454.808C139.852 448.069 148.975 434.488 151.567 430.341L148.249 431.482C142.236 433.451 135.705 430.445 133.32 424.639L117.148 385.141C117.148 385.037 117.148 384.933 117.148 384.83C118.703 374.463 117.562 357.149 117.562 357.046C117.562 356.838 117.666 356.735 117.77 356.631C124.819 351.344 131.351 345.538 137.26 339.111C143.895 331.957 146.279 323.353 144.724 319.102C144.31 317.651 143.065 316.614 141.614 316.51C135.29 315.681 107.195 323.871 101.908 328.847C96.6208 333.823 91.9556 351.033 89.5712 365.961C87.2904 380.061 82.6252 409.503 63.6534 447.551Z" fill="#111111"/>
<path d="M72.5711 234.299C72.2601 234.299 72.0527 234.092 72.0527 233.781C72.0527 233.47 72.2601 233.262 72.5711 233.262C72.8821 233.366 73.0894 233.573 72.9858 233.884C72.9858 234.092 72.7784 234.195 72.5711 234.299Z" fill="#111111"/>
<path d="M137.367 260.942C137.159 260.942 136.952 260.839 136.848 260.631L134.982 256.07C134.464 254.722 134.464 253.271 135.086 251.923C136.123 249.85 138.092 248.191 140.373 247.569C144.727 246.118 149.289 247.569 150.637 250.783L152.503 255.344C152.606 255.655 152.503 255.863 152.192 256.07C151.881 256.174 151.673 256.07 151.466 255.759L149.6 251.197C148.459 248.502 144.416 247.258 140.684 248.502C138.714 249.124 136.952 250.472 136.019 252.338C135.501 253.374 135.501 254.515 135.915 255.655L137.781 260.217C137.885 260.424 137.781 260.735 137.47 260.839C137.47 260.943 137.47 260.942 137.367 260.942Z" fill="#111111"/>
<path d="M160.794 272.657L143.273 278.359C140.889 279.085 138.504 278.359 137.675 276.701L132.906 265.4C132.18 263.742 133.528 261.668 135.809 260.943L153.329 255.241C155.714 254.411 158.202 255.241 158.928 256.899L163.696 268.2C164.526 269.858 163.178 271.828 160.794 272.657Z" fill="#FB7C37"/>
<path d="M141.511 279.189C139.748 279.292 138.089 278.359 137.26 276.908L132.491 265.608C132.18 264.778 132.18 263.845 132.595 263.016C133.217 261.772 134.357 260.839 135.809 260.424L153.329 254.722C155.921 253.893 158.72 254.826 159.549 256.692L164.318 267.992C164.629 268.822 164.629 269.755 164.215 270.584C163.593 271.932 162.452 272.865 161.001 273.279L143.48 278.981C142.858 279.085 142.133 279.189 141.511 279.189ZM155.299 255.344C154.677 255.344 154.158 255.448 153.64 255.655L136.12 261.357C134.979 261.668 134.046 262.394 133.528 263.431C133.217 263.949 133.217 264.571 133.424 265.193L138.193 276.493C138.815 277.945 140.992 278.567 143.066 277.945L160.586 272.243C161.727 271.932 162.66 271.206 163.178 270.169C163.489 269.651 163.489 269.029 163.282 268.407L158.513 257.107C157.891 255.863 156.647 255.241 155.299 255.344Z" fill="#111111"/>
<path d="M151.361 263.949C151.775 264.986 151.361 266.23 150.531 266.852L151.672 269.651C151.983 270.377 151.464 271.31 150.428 271.621C149.598 272.035 148.562 271.724 148.043 270.895L146.903 268.096C145.763 268.096 144.622 267.37 144.104 266.333C143.482 264.882 144.622 263.12 146.592 262.394C148.562 261.668 150.739 262.498 151.361 263.949Z" fill="#111111"/>
<path d="M149.701 272.346C148.872 272.346 148.043 271.932 147.628 271.102L146.591 268.511C145.347 268.407 144.207 267.578 143.688 266.437C143.377 265.711 143.377 264.882 143.792 264.156C144.311 263.016 145.347 262.187 146.488 261.876C148.768 261.15 151.153 261.979 151.879 263.638C152.293 264.778 151.982 266.022 151.153 266.852L152.19 269.34C152.397 269.755 152.397 270.273 152.19 270.688C151.879 271.31 151.256 271.828 150.634 272.035C150.323 272.243 150.012 272.346 149.701 272.346ZM148.146 262.705C147.628 262.705 147.213 262.809 146.695 262.912C145.762 263.223 145.036 263.845 144.518 264.675C144.311 265.089 144.311 265.711 144.414 266.126C144.933 266.956 145.762 267.578 146.799 267.578C147.006 267.578 147.11 267.681 147.213 267.889L148.354 270.688C148.561 271.206 149.39 271.413 150.116 271.102C150.531 270.999 150.842 270.688 151.049 270.377C151.153 270.169 151.153 270.066 151.049 269.858L149.909 267.059C149.805 266.852 149.909 266.645 150.012 266.437C150.738 265.919 151.049 264.986 150.738 264.053C150.323 263.223 149.287 262.601 148.146 262.705Z" fill="#111111"/>
<path d="M147.73 289.245C135.601 289.245 125.441 283.75 121.812 275.145L115.177 259.491C115.074 259.284 115.177 258.973 115.385 258.869C125.337 253.064 122.434 245.703 122.331 245.392C122.227 245.288 122.227 245.081 122.331 244.977C122.434 244.874 122.538 244.77 122.642 244.666L151.566 235.128C151.773 235.025 152.084 235.128 152.188 235.439C152.292 235.75 155.609 243.111 167.531 241.763C167.739 241.763 167.946 241.867 168.05 242.074L174.685 257.832C178.313 266.541 174.581 276.701 165.147 283.75L157.89 289.141C157.786 289.245 157.683 289.245 157.579 289.245L148.041 289.348H147.73V289.245ZM116.318 259.491L122.745 274.731C126.167 282.921 136.015 288.208 147.73 288.208H148.041L157.475 288.104L164.629 282.713C173.648 275.975 177.276 266.23 173.752 258.04L167.324 242.696C160.896 243.318 156.957 241.452 154.78 239.794C153.432 238.861 152.395 237.617 151.566 236.165L123.471 245.392C123.989 247.362 125.13 254.1 116.318 259.491Z" fill="#111111"/>
<path d="M247.601 295.944C260.99 287.338 262.458 265.758 250.88 247.745C239.302 229.732 219.061 222.106 205.672 230.712C192.282 239.319 190.814 260.898 202.392 278.911C213.971 296.925 234.211 304.55 247.601 295.944Z" fill="#FB7C37"/>
<path d="M235.127 300.027H234.609C217.296 299.612 199.568 282.921 195.11 262.809C192.726 251.923 194.592 241.763 200.294 234.921C204.855 229.427 211.698 226.42 218.851 226.731C236.164 227.146 253.892 243.837 258.35 263.949C260.734 274.834 258.868 284.994 253.166 291.837C248.708 297.124 242.073 300.13 235.127 300.027ZM218.125 227.664C211.49 227.56 205.166 230.463 201.019 235.543C195.629 242.178 193.762 252.027 196.043 262.601C200.397 282.299 217.607 298.679 234.505 298.99C241.348 299.301 247.879 296.398 252.233 291.111C257.624 284.476 259.49 274.627 257.209 264.053C252.855 244.355 235.646 227.975 218.747 227.664H218.125Z" fill="#111111"/>
<path d="M226.523 279.811C225.797 279.811 225.175 279.603 224.553 279.189L209.831 269.755C208.173 268.718 207.654 266.437 208.691 264.778C209.728 263.12 212.009 262.601 213.667 263.638L225.071 270.999L238.134 246.532C239.067 244.77 241.244 244.148 243.006 245.081C244.769 246.014 245.391 248.191 244.458 249.953L229.529 277.841C229.011 278.774 228.181 279.396 227.248 279.603C227.145 279.811 226.834 279.811 226.523 279.811Z" fill="#FB7C37"/>
<path d="M226.525 280.329C225.695 280.329 224.969 280.122 224.244 279.707L209.522 270.273C207.553 269.029 207.034 266.437 208.278 264.571C209.522 262.601 212.114 262.083 213.98 263.327L224.866 270.377L237.721 246.429C238.239 245.496 239.069 244.77 240.209 244.459C242.386 243.837 244.667 244.977 245.393 247.258C245.704 248.295 245.6 249.435 245.082 250.368L230.153 278.256C229.635 279.292 228.702 280.018 227.561 280.329C227.25 280.329 226.939 280.329 226.525 280.329ZM211.803 263.638C211.596 263.638 211.389 263.638 211.181 263.742C209.522 264.156 208.486 265.815 208.797 267.474C209.004 268.303 209.419 269.029 210.145 269.444L224.866 278.878C225.592 279.396 226.525 279.5 227.354 279.292C228.183 279.085 228.909 278.463 229.324 277.737L244.252 249.85C244.667 249.124 244.771 248.295 244.46 247.465C244.252 246.636 243.734 246.014 242.905 245.599C241.35 244.77 239.587 245.392 238.758 246.843L225.695 271.31C225.592 271.413 225.488 271.517 225.384 271.517C225.281 271.517 225.073 271.517 224.97 271.413L213.566 264.053C213.047 263.845 212.425 263.638 211.803 263.638Z" fill="#111111"/>
<path d="M345.331 456.777C359.223 456.052 365.236 460.821 376.847 478.445C388.458 496.069 402.868 522.609 402.868 522.609L317.132 565.943C317.132 565.943 269.444 492.959 288.934 477.823C308.424 462.687 345.331 456.777 345.331 456.777Z" fill="#111111"/>
<path d="M292.356 488.812C278.049 468.596 238.758 449.417 229.427 443.922C220.097 438.428 226.006 418.419 255.345 426.298C255.345 426.298 236.166 402.039 219.475 381.408C202.784 360.778 195.838 353.106 197.497 346.471C199.155 339.836 212.218 341.91 222.481 352.173C232.745 362.437 255.034 390.531 255.034 390.531C255.034 390.531 263.431 376.329 282.092 384.208C282.092 384.208 290.386 368.864 312.364 386.281C312.364 386.281 332.373 384.519 342.222 398.721C352.07 412.924 350.723 463.412 350.723 463.412C350.723 463.412 321.695 482.073 292.356 488.812Z" fill="#FB7C37"/>
<path d="M292.355 489.33C292.147 489.33 292.044 489.226 291.94 489.123C279.81 472.017 249.746 455.637 235.232 447.758C232.64 446.307 230.566 445.27 229.219 444.441C225.279 442.056 223.724 436.976 225.694 432.829C229.633 423.395 243.111 422.981 253.996 425.572C249.953 420.389 233.469 399.758 219.059 381.927L214.705 376.64C201.02 359.845 195.422 352.899 196.873 346.575C197.288 344.605 198.843 343.154 200.813 342.635C205.685 341.288 214.808 344.087 222.688 351.966C232.018 361.4 251.715 385.866 254.929 389.806C256.899 387.11 265.504 377.054 281.884 383.689C283.854 380.683 286.964 378.609 290.488 377.884C296.709 376.64 304.069 379.335 312.467 385.866C314.644 385.763 333.201 385.037 342.531 398.514C346.678 404.527 349.374 417.175 350.514 436.458C351.343 450.764 351.032 463.412 351.032 463.516C351.032 463.723 350.929 463.827 350.825 463.931C350.618 464.138 321.59 482.591 292.355 489.33ZM243.007 425.054C233.677 425.054 228.389 428.89 226.627 433.14C224.865 436.872 226.212 441.33 229.737 443.507C231.085 444.337 233.158 445.477 235.75 446.825C250.264 454.704 280.225 471.084 292.562 488.293C320.035 481.866 347.404 465.071 350.203 463.309C350.307 459.265 351.136 412.613 341.806 399.24C332.268 385.452 312.674 387.007 312.467 387.007C312.363 387.007 312.156 387.007 312.052 386.903C303.862 380.372 296.709 377.676 290.799 378.92C287.378 379.646 284.476 381.616 282.609 384.622C282.506 384.83 282.195 384.933 281.987 384.83C263.845 377.158 255.655 390.739 255.551 390.946C255.448 391.05 255.344 391.153 255.137 391.153C254.929 391.153 254.826 391.05 254.722 390.946C254.515 390.635 232.225 362.748 222.169 352.588C214.705 345.02 205.789 342.221 201.331 343.465C199.776 343.776 198.428 345.02 198.117 346.575C196.77 352.38 202.264 359.223 215.742 375.707L220.096 381.097C236.579 401.521 255.759 425.78 255.966 425.987C256.07 426.194 256.07 426.402 255.966 426.609C255.862 426.816 255.655 426.92 255.448 426.816C251.197 425.676 247.154 425.054 243.007 425.054Z" fill="#FB7C37"/>
<path d="M276.804 457.296C276.597 457.296 276.493 457.192 276.389 457.088C268.407 445.166 255.033 426.816 254.929 426.713C254.722 426.505 254.826 426.194 255.033 425.987C255.24 425.78 255.551 425.883 255.759 426.091C255.862 426.298 269.236 444.648 277.219 456.57C277.426 456.777 277.322 457.088 277.115 457.296C277.011 457.296 276.908 457.296 276.804 457.296Z" fill="#FB7C37"/>
<path d="M265.71 405.356C265.606 405.356 265.399 405.253 265.295 405.149C261.667 400.899 254.617 390.946 254.513 390.843C254.306 390.635 254.41 390.324 254.617 390.117C254.824 389.909 255.135 390.013 255.343 390.22C255.446 390.324 262.392 400.173 266.021 404.423C266.228 404.631 266.228 404.942 266.021 405.149C265.917 405.356 265.814 405.356 265.71 405.356Z" fill="#FB7C37"/>
<path d="M288.829 397.788C288.621 397.788 288.414 397.685 288.414 397.477C284.786 390.739 281.675 384.622 281.675 384.519C281.572 384.311 281.675 384 281.883 383.793C282.09 383.689 282.401 383.793 282.608 384C282.608 384.104 285.719 390.22 289.347 396.855C289.451 397.063 289.451 397.374 289.14 397.581C289.036 397.685 288.932 397.788 288.829 397.788Z" fill="#FB7C37"/>
<path d="M321.692 399.447C321.485 399.447 321.381 399.344 321.277 399.24C321.277 399.136 317.131 393.123 311.947 386.799C311.74 386.592 311.843 386.281 312.051 386.074C312.258 385.866 312.569 385.97 312.776 386.177C317.96 392.605 322.107 398.618 322.107 398.721C322.314 398.929 322.21 399.24 322.003 399.447C321.899 399.447 321.796 399.447 321.692 399.447Z" fill="#FB7C37"/>
<path d="M292.356 488.812C278.049 468.596 238.758 449.417 229.427 443.922C220.097 438.428 226.006 418.419 255.345 426.298C255.345 426.298 236.166 402.039 219.475 381.408C202.784 360.778 195.838 353.106 197.497 346.471C199.155 339.836 212.218 341.91 222.481 352.173C232.745 362.437 255.034 390.531 255.034 390.531C255.034 390.531 263.431 376.329 282.092 384.208C282.092 384.208 290.386 368.864 312.364 386.281C312.364 386.281 332.373 384.519 342.222 398.721C352.07 412.924 350.723 463.412 350.723 463.412C350.723 463.412 321.695 482.073 292.356 488.812Z" fill="#FB7C37"/>
<path d="M292.355 489.33C292.147 489.33 292.044 489.226 291.94 489.123C279.81 472.017 249.746 455.637 235.232 447.758C232.64 446.307 230.566 445.27 229.219 444.441C225.279 442.056 223.724 436.976 225.694 432.829C229.633 423.395 243.111 422.981 253.996 425.572C249.953 420.389 233.469 399.758 219.059 381.927L214.705 376.64C201.02 359.845 195.422 352.899 196.873 346.575C197.288 344.605 198.843 343.154 200.813 342.635C205.685 341.288 214.808 344.087 222.688 351.966C232.018 361.4 251.715 385.866 254.929 389.806C256.899 387.11 265.504 377.054 281.884 383.689C283.854 380.683 286.964 378.609 290.488 377.884C296.709 376.64 304.069 379.335 312.467 385.866C314.644 385.763 333.201 385.037 342.531 398.514C346.678 404.527 349.374 417.175 350.514 436.458C351.343 450.764 351.032 463.412 351.032 463.516C351.032 463.723 350.929 463.827 350.825 463.931C350.618 464.138 321.59 482.591 292.355 489.33ZM243.007 425.054C233.677 425.054 228.389 428.89 226.627 433.14C224.865 436.872 226.212 441.33 229.737 443.507C231.085 444.337 233.158 445.477 235.75 446.825C250.264 454.704 280.225 471.084 292.562 488.293C320.035 481.866 347.404 465.071 350.203 463.309C350.307 459.265 351.136 412.613 341.806 399.24C332.268 385.452 312.674 387.007 312.467 387.007C312.363 387.007 312.156 387.007 312.052 386.903C303.862 380.372 296.709 377.676 290.799 378.92C287.378 379.646 284.476 381.616 282.609 384.622C282.506 384.83 282.195 384.933 281.987 384.83C263.845 377.158 255.655 390.739 255.551 390.946C255.448 391.05 255.344 391.153 255.137 391.153C254.929 391.153 254.826 391.05 254.722 390.946C254.515 390.635 232.225 362.748 222.169 352.588C214.705 345.02 205.789 342.221 201.331 343.465C199.776 343.776 198.428 345.02 198.117 346.575C196.77 352.38 202.264 359.223 215.742 375.707L220.096 381.097C236.579 401.521 255.759 425.78 255.966 425.987C256.07 426.194 256.07 426.402 255.966 426.609C255.862 426.816 255.655 426.92 255.448 426.816C251.197 425.676 247.154 425.054 243.007 425.054Z" fill="#111111"/>
<path d="M276.804 457.296C276.597 457.296 276.493 457.192 276.389 457.088C268.407 445.166 255.033 426.816 254.929 426.713C254.722 426.505 254.826 426.194 255.033 425.987C255.24 425.78 255.551 425.883 255.759 426.091C255.862 426.298 269.236 444.648 277.219 456.57C277.426 456.777 277.322 457.088 277.115 457.296C277.011 457.296 276.908 457.296 276.804 457.296Z" fill="#111111"/>
<path d="M265.71 405.356C265.606 405.356 265.399 405.253 265.295 405.149C261.667 400.899 254.617 390.946 254.513 390.843C254.306 390.635 254.41 390.324 254.617 390.117C254.824 389.909 255.135 390.013 255.343 390.22C255.446 390.324 262.392 400.173 266.021 404.423C266.228 404.631 266.228 404.942 266.021 405.149C265.917 405.356 265.814 405.356 265.71 405.356Z" fill="#111111"/>
<path d="M288.829 397.788C288.621 397.788 288.414 397.685 288.414 397.477C284.786 390.739 281.675 384.622 281.675 384.519C281.572 384.311 281.675 384 281.883 383.793C282.09 383.689 282.401 383.793 282.608 384C282.608 384.104 285.719 390.22 289.347 396.855C289.451 397.063 289.451 397.374 289.14 397.581C289.036 397.685 288.932 397.788 288.829 397.788Z" fill="#111111"/>
<path d="M321.692 399.447C321.485 399.447 321.381 399.344 321.277 399.24C321.277 399.136 317.131 393.123 311.947 386.799C311.74 386.592 311.843 386.281 312.051 386.074C312.258 385.866 312.569 385.97 312.776 386.177C317.96 392.605 322.107 398.618 322.107 398.721C322.314 398.929 322.21 399.24 322.003 399.447C321.899 399.447 321.796 399.447 321.692 399.447Z" fill="#111111"/>
<path d="M292.356 488.812C278.049 468.596 238.758 449.417 229.427 443.922C220.097 438.428 226.006 418.419 255.345 426.298C255.345 426.298 236.166 402.039 219.475 381.408C202.784 360.778 195.838 353.106 197.497 346.471C199.155 339.836 212.218 341.91 222.481 352.173C232.745 362.437 255.034 390.531 255.034 390.531C255.034 390.531 263.431 376.329 282.092 384.208C282.092 384.208 290.386 368.864 312.364 386.281C312.364 386.281 332.373 384.519 342.222 398.721C352.07 412.924 350.723 463.412 350.723 463.412C350.723 463.412 321.695 482.073 292.356 488.812Z" stroke="#111111" stroke-width="1.5" stroke-linecap="round" stroke-linejoin="round"/>
<path d="M276.804 457.296C276.597 457.296 276.493 457.192 276.389 457.088C268.407 445.166 255.033 426.816 254.929 426.713C254.722 426.505 254.826 426.194 255.033 425.987C255.24 425.78 255.551 425.883 255.759 426.091C255.862 426.298 269.236 444.648 277.219 456.57C277.426 456.777 277.322 457.088 277.115 457.296C277.011 457.296 276.908 457.296 276.804 457.296Z" fill="#111111"/>
<path d="M265.71 405.356C265.606 405.356 265.399 405.253 265.295 405.149C261.667 400.899 254.617 390.946 254.513 390.843C254.306 390.635 254.41 390.324 254.617 390.117C254.824 389.909 255.135 390.013 255.343 390.22C255.446 390.324 262.392 400.173 266.021 404.423C266.228 404.631 266.228 404.942 266.021 405.149C265.917 405.356 265.814 405.356 265.71 405.356Z" fill="#111111"/>
<path d="M288.829 397.788C288.621 397.788 288.414 397.685 288.414 397.477C284.786 390.739 281.675 384.622 281.675 384.519C281.572 384.311 281.675 384 281.883 383.793C282.09 383.689 282.401 383.793 282.608 384C282.608 384.104 285.719 390.22 289.347 396.855C289.451 397.063 289.451 397.374 289.14 397.581C289.036 397.685 288.932 397.788 288.829 397.788Z" fill="#111111"/>
<path d="M321.692 399.447C321.485 399.447 321.381 399.344 321.277 399.24C321.277 399.136 317.131 393.123 311.947 386.799C311.74 386.592 311.843 386.281 312.051 386.074C312.258 385.866 312.569 385.97 312.776 386.177C317.96 392.605 322.107 398.618 322.107 398.721C322.314 398.929 322.21 399.24 322.003 399.447C321.899 399.447 321.796 399.447 321.692 399.447Z" fill="#111111"/>
</svg>
